<svg xmlns="http://www.w3.org/2000/svg" id="Capa_1" data-name="Capa 1" viewBox="0 0 300 300"><defs></defs><path class="cls-1" d="M233.42,74l-130.72,31.04c-5.91.07-8.36-6.76-3.6-10.34l131.48-31.67-2.47-11.29L26.27,100.17l2.48,10.96,21.02-4.97c5.76.55,7.52,7.75,2.44,10.58l-20.61,5.56,20.12,85.51c.38,4.4-2.87,6.98-7.16,6.1-3.76-.78-4.24-6.03-5.03-9.1-10.84-42.18-19.86-85-29.53-127.42.51-8.82,5.68-16.64,13.81-20.16,62.84-15.26,125.8-30.43,188.94-44.4,8.7.49,16.12,5.11,20.04,12.87,6.79,24.73,12.5,49.96,17.99,75.01.04,5.54-7.27,7.54-10.21,2.76-.76-1.24-.93-2.63-1.3-4-2.27-8.38-3.9-17-5.83-25.46ZM225.3,40.77c-1.31-8.27-3.91-17.44-14.22-16.51L29.45,67.11c-4.06,1.28-7.48,5-8.04,9.28-.53,4.08,1.64,8.19,2.1,12.21l.73.54,201.05-48.37Z"></path><path class="cls-1" d="M78.52,111.93l190.09-.12c11.79.87,20.47,9.64,21.39,21.39v132.59c-.87,11.79-9.64,20.47-21.39,21.39H79.46c-11.79-.87-20.47-9.64-21.39-21.39l.02-132.92c1.02-11.17,9.2-19.79,20.42-20.94ZM78.51,123.23c-4.84.97-8.69,5.02-9.12,9.97v132.59c.45,5.24,4.84,9.62,10.07,10.07h189.15c5.24-.45,9.62-4.84,10.07-10.07v-132.59c-.45-5.24-4.84-9.62-10.07-10.07l-190.1.1Z"></path><path class="cls-2" d="M198,141.28c5.41-.22,10.68,1.69,15.09,4.73,18.55-13.23,42.94,3.31,36.84,25.64-4.35,15.94-23.65,21.93-36.84,12.41-12.45,9.01-30.98,4.23-36.33-10.45-5.61-15.41,4.69-31.67,21.23-32.34ZM197.29,152.58c-17,1.95-12.63,28.9,4.68,24.47,5.38-1.38,7-6.82,12.2-6.2,2.71.33,5.12,4.28,8.17,5.61,10.56,4.59,20.78-6.07,16.31-16.66-3.12-7.39-12.41-9.47-18.77-4.79-2.54,1.86-3.28,4.37-7.14,4.2-3.37-.15-3.97-2.35-6.21-4.06-2.71-2.06-5.84-2.97-9.24-2.58Z"></path><path class="cls-2" d="M96.88,213.72l74.51-.09c7.22.81,7.22,10.5,0,11.31h-73.88c-6.93-.78-7.29-9.81-.62-11.23Z"></path><path class="cls-2" d="M96.88,236.35l74.51-.09c7.22.81,7.22,10.5,0,11.31h-73.88c-6.93-.78-7.29-9.81-.62-11.23Z"></path></svg>