<svg xmlns="http://www.w3.org/2000/svg" id="Capa_1" data-name="Capa 1" viewBox="0 0 300 300"><defs></defs><path class="cls-2" d="M290,218.28v16.38c-1.91,7.36-7.31,13.12-15.03,14.19H25.39c-14.77-2.57-16.29-15.98-15.05-28.69.29-3,1.44-5.09,4.5-5.88l268.36-.4c3.58.32,5.1,1.3,6.8,4.39ZM278.53,225.93H21.84c-.21,4.9-.45,10.74,5.72,11.48h244.72c6.73-.63,6.44-6.02,6.25-11.48Z"></path><path class="cls-2" d="M47.36,51.29l204.16-.15c7.82,1.03,14.34,7.67,15.02,15.57v120.19c-.82,8.36-7.71,14.93-16.11,15.57H49.94c-8.25-.63-14.93-6.9-16.09-15.05v-121.79c1.23-7.05,6.64-12.55,13.5-14.34ZM50.09,62.76c-2.98.54-4.82,3.11-4.79,6.13v115.83c.41,4.35,2.62,5.91,6.83,6.28h196.12c4.18-.37,6.41-1.91,6.83-6.28v-115.83c.02-3.68-2.6-6.31-6.29-6.28l-198.69.15Z"></path><path class="cls-1" d="M243.58,76.73v99.6c0,1.45-1.18,2.63-2.63,2.63H59.42c-1.45,0-2.63-1.18-2.63-2.63v-99.6c0-1.45,1.18-2.63,2.63-2.63h181.53c1.45,0,2.63,1.18,2.63,2.63ZM228.93,86.11H71.43c-1.45,0-2.63,1.18-2.63,2.63v76.12c0,1.45,1.18,2.63,2.63,2.63h157.5c1.45,0,2.63-1.18,2.63-2.63v-76.12c0-1.45-1.18-2.63-2.63-2.63Z"></path></svg>