<svg xmlns="http://www.w3.org/2000/svg" id="Capa_1" data-name="Capa 1" viewBox="0 0 300 300"><defs></defs><path class="cls-1" d="M175.72,29.7c6.75.44,13.95-.44,20.65.03,7.44.52,13.6,5.57,13.5,13.36,9.75.48,20.12-.64,29.81-.02,8.58.56,15,5.69,16.72,14.21.57,72.83.67,145.85-.05,218.67-1.27,6.56-6.13,11.79-12.6,13.44-62.41.79-125.15.79-187.56,0-7.71-2.08-12.48-8.35-13.03-16.28V60.17c.63-9.84,7.26-16.47,17.09-17.09,9.69-.62,20.05.49,29.81.02-.07-7.83,6.01-12.84,13.5-13.36,6.7-.46,13.91.4,20.66-.02,7.17-26.26,44.3-26.28,51.52,0ZM196.52,43.09h-28.16c-.43,0-2.5-1.24-2.93-1.63-2.83-2.53-1.78-6.69-3.17-10.18-4.28-10.69-20.3-10.69-24.59,0-1.4,3.48-.34,7.65-3.17,10.18-.43.39-2.5,1.63-2.93,1.63h-28.16v20.19h93.12v-20.19ZM90.05,65.72c-.36-2.67.26-6.03,0-8.79l-.49-.49h-29.95c-1.24,0-3.45,2.62-3.11,4.06l.24,213.37c.35,1.36,1.07,2.03,2.37,2.51h181.7c1.3-.48,2.02-1.15,2.37-2.51l.24-213.05c.32-1.46-1.78-4.38-3.11-4.38h-30.44v8.95c0,5.32-7.87,11.67-13.17,11.25l-94.1-.02c-5.53-.27-11.79-5.3-12.54-10.9Z"></path><path class="cls-1" d="M142.06,163.31l75.13-.07c8.11,1.01,8.11,12.21,0,13.35h-74.56c-7.68-1.37-8.11-11.25-.57-13.27Z"></path><path class="cls-1" d="M142.72,223.22l74.15-.08c8.12.82,8.71,12.02.66,13.35h-75.21c-7.67-1.42-7.61-12.17.41-13.27Z"></path><path class="cls-1" d="M142.39,109.92l74.8-.09c7.92,1.16,8.16,11.92.33,13.35h-74.89c-7.83-1.36-8.08-11.7-.24-13.27Z"></path><path class="cls-2" d="M121.87,149.96c6.12-1.06,10.12,5.34,6.87,10.45l-27.45,27.57c-3.19,2.58-5.98,2.59-9.26.13-2.02-1.52-13.91-13.45-14.74-15.21-2.23-4.68,1.25-9.98,6.42-9.69,4.78.28,9.03,8.02,12.97,10.41l22.02-21.96c.91-.72,2.01-1.51,3.17-1.71Z"></path><path class="cls-2" d="M122.2,96.56c5.87-.9,9.7,5.54,6.54,10.45l-28.91,28.72c-2.54,1.38-5.22.98-7.48-.7-3.1-2.31-11.15-10.53-13.71-13.64-2.88-3.49-2.88-8.39,1.41-10.65,7.32-3.85,11.41,6.26,16.62,9.48l22.02-21.96c.91-.78,2.31-1.53,3.5-1.71Z"></path><path class="cls-2" d="M122.54,209.86c5.51-.6,8.99,5.31,6.53,10.13l-29.24,29.04c-2.65,1.37-5.13,1.05-7.48-.7-3.12-2.33-11.13-10.51-13.71-13.64-2.95-3.58-2.79-8.5,1.62-10.77,6.93-3.57,11.52,6.56,16.42,9.6l21.69-21.63c1.15-.93,2.66-1.87,4.17-2.04Z"></path></svg>