<svg xmlns="http://www.w3.org/2000/svg" id="Capa_1" data-name="Capa 1" viewBox="0 0 280 280"><defs></defs><path class="cls-1" d="M189.3,113.89c64.2-3.65,107.74,64.7,76.24,121.23-2,3.59-4.53,6.83-6.66,10.33l12.3,23.73c1.1,2.86-.63,6.29-3.46,7.34l-79.1.24c-48.12-3.59-82.52-47.15-74.78-94.99,5.99-37.03,37.96-65.75,75.45-67.88ZM255.69,265.22c.21-.19-2.15-4.63-2.44-5.2-2.01-3.94-5.3-8.84-6.83-12.78-1.94-5.01,2.31-7.91,4.9-11.64,22.02-31.7,14.75-74.83-16.58-97.23-37.7-26.94-91.11-9.64-106.3,33.75-15.12,43.18,14.58,88.58,59.63,92.79l4.6.3h63.02Z"></path><path class="cls-1" d="M175.5,105.44l-11.23,2.89c-7.5-30.61-34.78-54.66-66.23-57.93C32.46,43.58-11.82,115.65,24.91,170.55c1.78,2.66,6.76,7.83,6.99,10.61.1,1.23-.13,1.84-.53,2.93-2.36,6.49-7.95,13.51-10.56,20.01-.12.3-.23.51-.16.85,6.1-.06,12.22.08,18.32.01,17.12-.17,34.54.07,51.6-.31,4.12-.09,8.24-.09,12.27-1.14l1.73,11.53c-1.75.36-3.56.69-5.34.87-8.29.84-16.49.2-24.81.28-21.1.19-42.3.47-63.45.31-4.17-.08-7.4-3.94-5.67-8l13.55-26.15c-9.45-12.54-16.02-27.38-18.07-43.06C-7.31,77.39,48.24,26.78,109.19,40.41c31.92,7.14,58.88,33.09,66.32,65.03Z"></path><path class="cls-1" d="M245.3,122.46h15.57c-1.58-4.22-5.05-8.53-6.48-12.69-1.62-4.71,1.51-6.33,3.83-9.71,16.46-23.9,12.3-56.27-10.94-74.03-32.95-25.19-80.69-5.07-85.91,35.59l-10.05-9.43c5.68-24.2,26.67-43.32,51-47.82,25.63-4.74,51.37,5.75,66.11,27.05,16.02,23.14,15.27,54.29-1.52,76.79l9.3,18.09c2.27,11.11-11.11,7.43-17.74,7.93-4.02-4.34-8.57-8.08-13.18-11.77Z"></path><circle class="cls-2" cx="83.47" cy="125.75" r="8.55"></circle><circle class="cls-2" cx="50.42" cy="125.75" r="8.55"></circle><circle class="cls-2" cx="116.56" cy="125.75" r="8.54"></circle><circle class="cls-2" cx="214.48" cy="69.67" r="7.42"></circle><circle class="cls-2" cx="243.15" cy="69.67" r="7.4"></circle><circle class="cls-2" cx="185.77" cy="69.68" r="7.4"></circle><circle class="cls-2" cx="227.59" cy="195.45" r="8.55"></circle><circle class="cls-2" cx="161.46" cy="195.44" r="8.55"></circle><circle class="cls-2" cx="194.52" cy="195.44" r="8.54"></circle></svg>